<?xml version="1.0" standalone="no"?>
<svg viewBox="0 0 200 200" xmlns="http://www.w3.org/2000/svg">
  <path fill="#08BDBA" d="M46.9,-70.7C61.6,-63.5,74.9,-51.9,78,-37.8C81.1,-23.6,74,-7,67.8,7C61.5,21,56.1,32.5,47.6,40.1C39.2,47.7,27.7,51.6,15.4,57.6C3,63.6,-10.2,71.8,-19.8,68.5C-29.4,65.2,-35.3,50.4,-42.4,38.7C-49.6,27,-57.9,18.2,-62.3,7.2C-66.6,-3.9,-66.9,-17.3,-61.3,-27.3C-55.7,-37.4,-44.2,-44.2,-33,-53C-21.8,-61.8,-10.9,-72.6,2.6,-76.7C16.1,-80.7,32.2,-77.9,46.9,-70.7Z" transform="translate(100 100)" />
</svg>
